<svg width="9" height="10" viewBox="0 0 9 10" fill="none" xmlns="http://www.w3.org/2000/svg">
<path d="M3.03656 5.64984C2.91039 5.64984 2.80455 5.60709 2.71905 5.52158C2.63384 5.43638 2.59124 5.33069 2.59124 5.20452C2.59124 5.07834 2.63384 4.9725 2.71905 4.887C2.80455 4.8018 2.91039 4.75919 3.03656 4.75919C3.16274 4.75919 3.26858 4.8018 3.35408 4.887C3.43928 4.9725 3.48189 5.07834 3.48189 5.20452C3.48189 5.33069 3.43928 5.43638 3.35408 5.52158C3.26858 5.60709 3.16274 5.64984 3.03656 5.64984ZM4.81785 5.64984C4.69168 5.64984 4.58599 5.60709 4.50078 5.52158C4.41528 5.43638 4.37253 5.33069 4.37253 5.20452C4.37253 5.07834 4.41528 4.9725 4.50078 4.887C4.58599 4.8018 4.69168 4.75919 4.81785 4.75919C4.94403 4.75919 5.04987 4.8018 5.13537 4.887C5.22057 4.9725 5.26318 5.07834 5.26318 5.20452C5.26318 5.33069 5.22057 5.43638 5.13537 5.52158C5.04987 5.60709 4.94403 5.64984 4.81785 5.64984ZM6.59914 5.64984C6.47297 5.64984 6.36728 5.60709 6.28207 5.52158C6.19657 5.43638 6.15382 5.33069 6.15382 5.20452C6.15382 5.07834 6.19657 4.9725 6.28207 4.887C6.36728 4.8018 6.47297 4.75919 6.59914 4.75919C6.72532 4.75919 6.83101 4.8018 6.91621 4.887C7.00171 4.9725 7.04447 5.07834 7.04447 5.20452C7.04447 5.33069 7.00171 5.43638 6.91621 5.52158C6.83101 5.60709 6.72532 5.64984 6.59914 5.64984ZM1.7006 9.21242C1.45567 9.21242 1.24592 9.12528 1.07136 8.95101C0.897086 8.77645 0.809952 8.5667 0.809952 8.32177V2.08726C0.809952 1.84233 0.897086 1.63273 1.07136 1.45846C1.24592 1.2839 1.45567 1.19661 1.7006 1.19661H2.14592V0.305969H3.03656V1.19661H6.59914V0.305969H7.48979V1.19661H7.93511C8.18004 1.19661 8.38978 1.2839 8.56435 1.45846C8.73862 1.63273 8.82576 1.84233 8.82576 2.08726V8.32177C8.82576 8.5667 8.73862 8.77645 8.56435 8.95101C8.38978 9.12528 8.18004 9.21242 7.93511 9.21242H1.7006ZM1.7006 8.32177H7.93511V3.86855H1.7006V8.32177ZM1.7006 2.9779H7.93511V2.08726H1.7006V2.9779Z" fill="#121212" fill-opacity="0.8"/>
</svg>
